
   For more quality and secure releases, plus a great community.... http://sceneleakers.me/signup.php     Home 
of group.....
                                                                            
                                                                                    
  

The.Tall.Man.2012.DVDRip.Xvid.Ac3-SLRG

PLOT
When her child goes missing, a mother looks to unravel the legend of the Tall Man, an entity who allegedly abducts children.


IMDB 
http://www.imdb.com/title/tt1658837/

INFO
Format                                   : AVI
Format/Info                              : Audio Video Interleave
File size                                : 1.08 GiB
Duration                                 : 1h 45mn
Overall bit rate                         : 1 457 Kbps
Writing library                          : VirtualDub build 32842/release

Mediainfo:

VIDEO
ID                                       : 0
Format                                   : MPEG-4 Visual
Format profile                           : Advanced Simple@L5
Format settings, BVOP                    : 2
Format settings, QPel                    : Yes
Format settings, GMC                     : No warppoints
Format settings, Matrix                  : Default (H.263)
Codec ID                                 : XVID
Codec ID/Hint                            : XviD
Duration                                 : 1h 45mn
Bit rate                                 : 999 Kbps
Width                                    : 720 pixels
Height                                   : 304 pixels
Display aspect ratio                     : 2.35:1
Frame rate                               : 23.976 fps
Color space                              : YUV
Chroma subsampling                       : 4:2:0
Bit depth                                : 8 bits
Scan type                                : Progressive
Compression mode                         : Lossy
Bits/(Pixel*Frame)                       : 0.190
Stream size                              : 756 MiB (69%)
Writing library                          : XviD 1.2.1 (UTC 2008-12-04)

AUDIO
ID                                       : 1
Format                                   : AC-3
Format/Info                              : Audio Coding 3
Mode extension                           : CM (complete main)
Format settings, Endianness              : Big
Codec ID                                 : 2000
Duration                                 : 1h 45mn
Bit rate mode                            : Constant
Bit rate                                 : 448 Kbps
Channel(s)                               : 6 channels
Channel positions                        : Front: L C R, Side: L R, LFE
Sampling rate                            : 48.0 KHz
Bit depth                                : 16 bits
Compression mode                         : Lossy
Stream size                              : 339 MiB (31%)
Alignment                                : Split accross interleaves
Interleave, duration                     : 42 ms (1.00 video frame)
Interleave, preload duration             : 500 ms


Source: DVD-R 

Screenshots:



LOOKING FOR PRE-RELEASE DVDs/Blu-ray Releases

slrg@hushmail.com

Respects: To all the P2P groups keep up the fight :)
